<svg id="discord" xmlns="http://www.w3.org/2000/svg" width="50.649" height="55.205" viewBox="0 0 50.649 55.205">
  <path id="Path_1" data-name="Path 1" d="M6.94,48.755H39.767L38.2,43.683c.233.2,13.45,11.522,13.45,11.522V5.693A6.109,6.109,0,0,0,45.553,0L6.951.007A5.875,5.875,0,0,0,1,5.7V43.06a5.759,5.759,0,0,0,5.94,5.7ZM31.224,13.072l-.076.028.028-.028ZM13.655,15.991a14.211,14.211,0,0,1,8.131-2.921l.315.311c-5.164,1.231-7.505,3.535-7.505,3.535a26.161,26.161,0,0,1,23.3.152,18.941,18.941,0,0,0-7.192-3.535l.428-.421a14.224,14.224,0,0,1,8.009,2.9,35.484,35.484,0,0,1,4.245,16.147,12.273,12.273,0,0,1-9.05,3.97s-1.087-1.228-1.86-2.3A9.3,9.3,0,0,0,37.635,30.6c-7.3,4.6-13.707,3.878-21.367.773a.177.177,0,0,1-.14-.069v-.014a.184.184,0,0,0-.14-.069h-.138a7.779,7.779,0,0,0-.783-.46,9.241,9.241,0,0,0,5.005,3.229c-.946,1.079-1.883,2.3-1.883,2.3-6.414-.152-8.753-4.154-8.753-4.154a35.569,35.569,0,0,1,4.22-16.147Z" transform="translate(-1 0)" fill="#fa784a"/>
  <path id="Path_2" data-name="Path 2" d="M15.985,16.249a3.079,3.079,0,0,0,0-6.153V10.1a3.075,3.075,0,0,0,0,6.146Z" transform="translate(14.653 13.127)" fill="#fa784a"/>
  <path id="Path_3" data-name="Path 3" d="M11.367,16.249a3.079,3.079,0,0,0,.009-6.153l-.009.007a3.075,3.075,0,0,0,0,6.146Z" transform="translate(8.638 13.127)" fill="#fa784a"/>
</svg>
