<svg xmlns="http://www.w3.org/2000/svg" width="50.649" height="47.018" viewBox="0 0 50.649 47.018">
  <path id="github" d="M24.522,2.2C12.849,3.411,3.46,12.384,2.191,23.3A24.306,24.306,0,0,0,18.178,48.759,1.153,1.153,0,0,0,19.7,47.546v-3.88a10.931,10.931,0,0,1-2.284.243A5.372,5.372,0,0,1,12.088,39.3a4.994,4.994,0,0,0-1.523-2.425c-.761-.243-1.015-.243-1.015-.485,0-.485.761-.485,1.015-.485,1.523,0,2.791,1.7,3.3,2.425a4.641,4.641,0,0,0,3.553,2.425,5.261,5.261,0,0,0,2.284-.485,6.084,6.084,0,0,1,2.538-4.365c-5.836-1.213-10.15-4.365-10.15-9.7a11.161,11.161,0,0,1,3.045-7.275,8.633,8.633,0,0,1-.508-3.4,7.987,7.987,0,0,1,.761-3.88,11.707,11.707,0,0,1,7.105,3.153,14.315,14.315,0,0,1,4.821-.728,17.062,17.062,0,0,1,5.075.728,11.213,11.213,0,0,1,7.105-3.153A11.548,11.548,0,0,1,40,15.536a7.742,7.742,0,0,1-.508,3.4,10.673,10.673,0,0,1,3.045,7.275c0,5.335-4.314,8.488-10.15,9.7a7.331,7.331,0,0,1,2.538,5.578v6.305A1.373,1.373,0,0,0,36.7,49c9.389-3.638,15.987-12.368,15.987-22.553C52.689,11.9,39.748.5,24.522,2.2Z" transform="translate(-2.041 -2.031)" fill="#fa784a"/>
</svg>
