<svg id="spotify" xmlns="http://www.w3.org/2000/svg" width="51.493" height="51.493" viewBox="0 0 51.493 51.493">
  <path id="Path_10" data-name="Path 10" d="M29.747,4A25.746,25.746,0,1,0,55.494,29.746,25.7,25.7,0,0,0,29.747,4Z" transform="translate(-4.001 -4)" fill="#fa784a"/>
  <path id="Path_11" data-name="Path 11" d="M37.752,39.08a2.659,2.659,0,0,1-1.129-.376,25.1,25.1,0,0,0-12.605-3.2,34.589,34.589,0,0,0-7.715.94c-.376,0-.941.188-1.129.188a1.485,1.485,0,0,1-1.5-1.506,1.644,1.644,0,0,1,1.317-1.692A37.4,37.4,0,0,1,24.2,32.308a27.915,27.915,0,0,1,14.3,3.764,1.761,1.761,0,0,1,.941,1.692A1.8,1.8,0,0,1,37.752,39.08Zm2.634-6.4a2.712,2.712,0,0,1-1.317-.375,29.958,29.958,0,0,0-15.615-3.953,31.247,31.247,0,0,0-7.9.944,2.837,2.837,0,0,1-1.129.185A1.885,1.885,0,0,1,12.54,27.6a2.038,2.038,0,0,1,1.5-2.069,34.765,34.765,0,0,1,9.6-1.317,33.684,33.684,0,0,1,17.5,4.515,2.069,2.069,0,0,1,1.129,1.881A1.934,1.934,0,0,1,40.386,32.682ZM43.4,25.159a3.511,3.511,0,0,1-1.317-.375c-4.516-2.635-11.289-4.141-17.874-4.141a41.05,41.05,0,0,0-9.784,1.129c-.377,0-.753.188-1.317.188A2.076,2.076,0,0,1,10.847,19.7a2.115,2.115,0,0,1,1.693-2.258,38.1,38.1,0,0,1,11.666-1.506c7.15,0,14.675,1.506,20.32,4.7A2.4,2.4,0,0,1,45.842,22.9,2.455,2.455,0,0,1,43.4,25.159Z" transform="translate(-2.034 -0.57)" fill="#1d212b"/>
</svg>
