<svg id="steam" xmlns="http://www.w3.org/2000/svg" width="50.649" height="50.649" viewBox="0 0 50.649 50.649">
  <path id="Path_4" data-name="Path 4" d="M54.649,29.324A25.323,25.323,0,0,1,5.861,38.846c-.114-.253-.2-.506-.3-.76s-.177-.494-.253-.747A25.081,25.081,0,0,1,4,29.324a5.724,5.724,0,0,1,.025-.658,5.714,5.714,0,0,1,.013-.658,25.322,25.322,0,0,1,50.611,1.317Z" transform="translate(-4 -4)" fill="#fa784a"/>
  <circle id="Ellipse_1" data-name="Ellipse 1" cx="4.537" cy="4.537" r="4.537" transform="translate(26.457 13.858)" fill="#1d212b"/>
  <path id="Path_5" data-name="Path 5" d="M29.685,14.5a5.185,5.185,0,1,0,5.185,5.185A5.183,5.183,0,0,0,29.685,14.5Zm0,9.722a4.537,4.537,0,1,1,4.537-4.537A4.542,4.542,0,0,1,29.685,24.222Z" transform="translate(1.304 -1.283)" opacity="0.07"/>
  <path id="Path_6" data-name="Path 6" d="M35.757,10A10.848,10.848,0,0,0,24.739,20.654c0,.226.026.439.039.652l-3.928,6.242a9.184,9.184,0,0,0-6.74,2.908L4,27.547a24.081,24.081,0,0,0,1.335,7.934L11.868,37.5a8.969,8.969,0,0,0,8.983,7.6,8.921,8.921,0,0,0,9.073-8.774,9.233,9.233,0,0,0-.117-1.354l6.559-3.685A10.825,10.825,0,0,0,46.775,20.654,10.848,10.848,0,0,0,35.757,10ZM20.851,42.588a6.456,6.456,0,0,1-6.092-4.2l4.861,1.492.013-.013c0,.013.013.013.026.013.181.05.35.1.531.138a3.934,3.934,0,0,0,.661.063,3.821,3.821,0,0,0,3.889-3.76,3.779,3.779,0,0,0-2.618-3.534l-.039-.038-5.068-1.454a6.614,6.614,0,0,1,3.837-1.241,6.27,6.27,0,1,1,0,12.534Zm14.906-15.04a7.01,7.01,0,0,1-7.129-6.894,7.133,7.133,0,0,1,14.258,0A7.01,7.01,0,0,1,35.757,27.547Z" transform="translate(-4 -2.223)" fill="#1d212b"/>
  <path id="Path_7" data-name="Path 7" d="M42.1,19.665a7.248,7.248,0,0,0-.376-1.168c-.078-.188-.181-.377-.272-.553a6.592,6.592,0,0,0-2.618-2.538c-.181-.088-.376-.188-.57-.264a7.83,7.83,0,0,0-1.205-.364,6.885,6.885,0,0,0-2.618,0,7.83,7.83,0,0,0-1.205.364c-.194.075-.389.176-.57.264a6.592,6.592,0,0,0-2.618,2.538c-.091.176-.194.364-.272.553a7.248,7.248,0,0,0-.376,1.168,6.275,6.275,0,0,0,0,2.538,7.248,7.248,0,0,0,.376,1.168c.078.188.181.377.272.553a6.592,6.592,0,0,0,2.618,2.538c.181.088.376.188.57.264a7.83,7.83,0,0,0,1.205.364,6.885,6.885,0,0,0,2.618,0,7.83,7.83,0,0,0,1.205-.364c.194-.075.389-.176.57-.264a6.592,6.592,0,0,0,2.618-2.538c.091-.176.194-.364.272-.553A7.248,7.248,0,0,0,42.1,22.2a6.275,6.275,0,0,0,0-2.538Zm-6.351,6.294a5.027,5.027,0,1,1,5.185-5.025A5.105,5.105,0,0,1,35.752,25.959ZM20.846,30.984a5.974,5.974,0,0,0-2.2.427l3.616,1.043.156.075.013.013a4.389,4.389,0,0,1,2.955,4.1,4.473,4.473,0,0,1-4.537,4.4,4.047,4.047,0,0,1-.765-.075h-.039L20.029,41l-.609-.188-3.409-1.055a5.855,5.855,0,0,0,4.835,2.538,5.656,5.656,0,1,0,0-11.306Zm0,0a5.974,5.974,0,0,0-2.2.427l3.616,1.043.156.075.013.013a4.389,4.389,0,0,1,2.955,4.1,4.473,4.473,0,0,1-4.537,4.4,4.047,4.047,0,0,1-.765-.075h-.039L20.029,41l-.609-.188-3.409-1.055a5.855,5.855,0,0,0,4.835,2.538,5.656,5.656,0,1,0,0-11.306ZM35.752,9A12.14,12.14,0,0,0,23.438,20.934a2.967,2.967,0,0,0,.013.339l-3.344,5.339a10.5,10.5,0,0,0-6.377,2.726l-9.359-2.7-.337-.1a5.5,5.5,0,0,0-.013.653l.156.05,9.735,2.814a9.855,9.855,0,0,1,6.572-2.826l3.629-5.791c-.013-.163-.026-.339-.026-.5a11.672,11.672,0,0,1,23.332,0A11.462,11.462,0,0,1,36.556,32.2L30.5,35.619a9.314,9.314,0,0,1,.065,1.018,9.579,9.579,0,0,1-9.722,9.422A9.676,9.676,0,0,1,11.28,38.3L5.59,36.536c.1.251.194.5.311.754l4.822,1.495a10.324,10.324,0,0,0,10.123,7.9,10.227,10.227,0,0,0,10.37-10.05c0-.226-.013-.452-.026-.678l5.561-3.141A12.09,12.09,0,0,0,48.066,20.934,12.139,12.139,0,0,0,35.752,9ZM20.846,41.034a4.047,4.047,0,0,1-.765-.075h-.039L20.029,41l-.609-.188-3.409-1.055a5.855,5.855,0,0,0,4.835,2.538,5.656,5.656,0,1,0,0-11.306,5.974,5.974,0,0,0-2.2.427l3.616,1.043.156.075.013.013a4.389,4.389,0,0,1,2.955,4.1A4.473,4.473,0,0,1,20.846,41.034Zm0-10.05a5.974,5.974,0,0,0-2.2.427l3.616,1.043.156.075.013.013a4.389,4.389,0,0,1,2.955,4.1,4.473,4.473,0,0,1-4.537,4.4,4.047,4.047,0,0,1-.765-.075h-.039L20.029,41l-.609-.188-3.409-1.055a5.855,5.855,0,0,0,4.835,2.538,5.656,5.656,0,1,0,0-11.306Zm0,0a5.974,5.974,0,0,0-2.2.427l3.616,1.043.156.075.013.013a4.389,4.389,0,0,1,2.955,4.1,4.473,4.473,0,0,1-4.537,4.4,4.047,4.047,0,0,1-.765-.075h-.039L20.029,41l-.609-.188-3.409-1.055a5.855,5.855,0,0,0,4.835,2.538,5.656,5.656,0,1,0,0-11.306Zm0,0a5.974,5.974,0,0,0-2.2.427l3.616,1.043.156.075.013.013a4.389,4.389,0,0,1,2.955,4.1,4.473,4.473,0,0,1-4.537,4.4,4.047,4.047,0,0,1-.765-.075h-.039L20.029,41l-.609-.188-3.409-1.055a5.855,5.855,0,0,0,4.835,2.538,5.656,5.656,0,1,0,0-11.306Zm0,0a5.974,5.974,0,0,0-2.2.427l3.616,1.043.156.075.013.013a4.389,4.389,0,0,1,2.955,4.1,4.473,4.473,0,0,1-4.537,4.4,4.047,4.047,0,0,1-.765-.075h-.039L20.029,41l-.609-.188-3.409-1.055a5.855,5.855,0,0,0,4.835,2.538,5.656,5.656,0,1,0,0-11.306Z" transform="translate(-3.995 -2.519)" opacity="0.05"/>
  <path id="Path_8" data-name="Path 8" d="M35.757,9.5A11.5,11.5,0,0,0,24.091,20.794c0,.163.013.339.026.5L20.488,27.08A9.86,9.86,0,0,0,13.916,29.9L4.181,27.093l-.156-.05A5.492,5.492,0,0,0,4,27.7l10.11,2.911a9.179,9.179,0,0,1,6.74-2.911l3.928-6.249c-.013-.213-.039-.427-.039-.653a11.024,11.024,0,0,1,22.036,0A10.832,10.832,0,0,1,36.366,31.435l-6.559,3.689a9.255,9.255,0,0,1,.117,1.355,8.926,8.926,0,0,1-9.073,8.784,8.972,8.972,0,0,1-8.983-7.6l-6.533-2.02c.078.251.169.5.259.74l5.69,1.757a9.673,9.673,0,0,0,9.566,7.755,9.574,9.574,0,0,0,9.722-9.411,9.3,9.3,0,0,0-.065-1.016l6.053-3.413A11.455,11.455,0,0,0,47.423,20.794,11.5,11.5,0,0,0,35.757,9.5Zm0,18.2a7.014,7.014,0,0,0,7.129-6.9,7.133,7.133,0,0,0-14.258,0A7.014,7.014,0,0,0,35.757,27.7Zm-5.976-4.467a6.147,6.147,0,0,1-.376-1.167,6.261,6.261,0,0,1,0-2.535,6.146,6.146,0,0,1,.376-1.167c.078-.188.181-.376.272-.552a6.589,6.589,0,0,1,2.618-2.535c.181-.088.376-.188.57-.264a6.657,6.657,0,0,1,1.205-.364,6.892,6.892,0,0,1,2.618,0,6.657,6.657,0,0,1,1.205.364c.194.075.389.176.57.264a6.589,6.589,0,0,1,2.618,2.535c.091.176.194.364.272.552a6.146,6.146,0,0,1,.376,1.167,6.261,6.261,0,0,1,0,2.535,6.146,6.146,0,0,1-.376,1.167c-.078.188-.181.376-.272.552a6.589,6.589,0,0,1-2.618,2.535c-.181.088-.376.188-.57.264a6.658,6.658,0,0,1-1.205.364,6.892,6.892,0,0,1-2.618,0,6.657,6.657,0,0,1-1.205-.364c-.194-.075-.389-.176-.57-.264a6.589,6.589,0,0,1-2.618-2.535C29.963,23.6,29.859,23.416,29.782,23.228ZM20.851,40.244a3.929,3.929,0,0,1-.661-.063c-.181-.038-.35-.088-.531-.138-.013,0-.026,0-.026-.013l-.013.013L14.759,38.55a6.456,6.456,0,0,0,6.092,4.2,6.278,6.278,0,1,0,0-12.548,6.609,6.609,0,0,0-3.837,1.242L22.082,32.9l.039.038a3.783,3.783,0,0,1,2.618,3.539A3.823,3.823,0,0,1,20.851,40.244Zm4.537-3.765a4.384,4.384,0,0,0-2.955-4.091l-.013-.013-.156-.075-3.616-1.042a5.979,5.979,0,0,1,2.2-.427,5.65,5.65,0,1,1,0,11.294,5.857,5.857,0,0,1-4.835-2.535l3.409,1.054.609.188.013-.038h.039a4.051,4.051,0,0,0,.765.075A4.471,4.471,0,0,0,25.387,36.479ZM20.851,30.2a6.609,6.609,0,0,0-3.837,1.242L22.082,32.9l.039.038a3.783,3.783,0,0,1,2.618,3.539,3.823,3.823,0,0,1-3.889,3.765,3.929,3.929,0,0,1-.661-.063c-.181-.038-.35-.088-.531-.138-.013,0-.026,0-.026-.013l-.013.013L14.759,38.55a6.456,6.456,0,0,0,6.092,4.2,6.278,6.278,0,1,0,0-12.548Zm0,11.921a5.857,5.857,0,0,1-4.835-2.535l3.409,1.054.609.188.013-.038h.039a4.051,4.051,0,0,0,.765.075,4.471,4.471,0,0,0,4.537-4.392,4.384,4.384,0,0,0-2.955-4.091l-.013-.013-.156-.075-3.616-1.042a5.979,5.979,0,0,1,2.2-.427,5.65,5.65,0,1,1,0,11.294ZM35.757,13.892a7.014,7.014,0,0,0-7.129,6.9,7.133,7.133,0,0,0,14.258,0A7.014,7.014,0,0,0,35.757,13.892Zm5.976,9.336c-.078.188-.181.376-.272.552a6.589,6.589,0,0,1-2.618,2.535c-.181.088-.376.188-.57.264a6.658,6.658,0,0,1-1.205.364,6.892,6.892,0,0,1-2.618,0,6.657,6.657,0,0,1-1.205-.364c-.194-.075-.389-.176-.57-.264a6.589,6.589,0,0,1-2.618-2.535c-.091-.176-.194-.364-.272-.552a6.147,6.147,0,0,1-.376-1.167,6.261,6.261,0,0,1,0-2.535,6.146,6.146,0,0,1,.376-1.167c.078-.188.181-.376.272-.552a6.589,6.589,0,0,1,2.618-2.535c.181-.088.376-.188.57-.264a6.657,6.657,0,0,1,1.205-.364,6.892,6.892,0,0,1,2.618,0,6.657,6.657,0,0,1,1.205.364c.194.075.389.176.57.264a6.589,6.589,0,0,1,2.618,2.535c.091.176.194.364.272.552a6.146,6.146,0,0,1,.376,1.167,6.261,6.261,0,0,1,0,2.535A6.146,6.146,0,0,1,41.733,23.228Zm-5.976-9.336a7.014,7.014,0,0,0-7.129,6.9,7.133,7.133,0,0,0,14.258,0A7.014,7.014,0,0,0,35.757,13.892Zm5.976,9.336c-.078.188-.181.376-.272.552a6.589,6.589,0,0,1-2.618,2.535c-.181.088-.376.188-.57.264a6.658,6.658,0,0,1-1.205.364,6.892,6.892,0,0,1-2.618,0,6.657,6.657,0,0,1-1.205-.364c-.194-.075-.389-.176-.57-.264a6.589,6.589,0,0,1-2.618-2.535c-.091-.176-.194-.364-.272-.552a6.147,6.147,0,0,1-.376-1.167,6.261,6.261,0,0,1,0-2.535,6.146,6.146,0,0,1,.376-1.167c.078-.188.181-.376.272-.552a6.589,6.589,0,0,1,2.618-2.535c.181-.088.376-.188.57-.264a6.657,6.657,0,0,1,1.205-.364,6.892,6.892,0,0,1,2.618,0,6.657,6.657,0,0,1,1.205.364c.194.075.389.176.57.264a6.589,6.589,0,0,1,2.618,2.535c.091.176.194.364.272.552a6.146,6.146,0,0,1,.376,1.167,6.261,6.261,0,0,1,0,2.535A6.146,6.146,0,0,1,41.733,23.228ZM20.851,30.2a6.609,6.609,0,0,0-3.837,1.242L22.082,32.9l.039.038a3.783,3.783,0,0,1,2.618,3.539,3.823,3.823,0,0,1-3.889,3.765,3.929,3.929,0,0,1-.661-.063c-.181-.038-.35-.088-.531-.138-.013,0-.026,0-.026-.013l-.013.013L14.759,38.55a6.456,6.456,0,0,0,6.092,4.2,6.278,6.278,0,1,0,0-12.548Zm0,11.921a5.857,5.857,0,0,1-4.835-2.535l3.409,1.054.609.188.013-.038h.039a4.051,4.051,0,0,0,.765.075,4.471,4.471,0,0,0,4.537-4.392,4.384,4.384,0,0,0-2.955-4.091l-.013-.013-.156-.075-3.616-1.042a5.979,5.979,0,0,1,2.2-.427,5.65,5.65,0,1,1,0,11.294Z" transform="translate(-4 -2.371)" opacity="0.07"/>
  <path id="Path_9" data-name="Path 9" d="M30.129,13a7.129,7.129,0,1,0,7.129,7.129A7.125,7.125,0,0,0,30.129,13ZM36.1,22.644c-.078.194-.181.389-.272.57a6.692,6.692,0,0,1-2.618,2.618c-.181.091-.376.194-.57.272a6.5,6.5,0,0,1-1.205.376,6.676,6.676,0,0,1-2.618,0,6.5,6.5,0,0,1-1.205-.376c-.194-.078-.389-.181-.57-.272a6.692,6.692,0,0,1-2.618-2.618c-.091-.181-.194-.376-.272-.57a6.5,6.5,0,0,1-.376-1.205,6.676,6.676,0,0,1,0-2.618,6.5,6.5,0,0,1,.376-1.205c.078-.194.181-.389.272-.57a6.692,6.692,0,0,1,2.618-2.618c.181-.091.376-.194.57-.272a6.5,6.5,0,0,1,1.205-.376,6.676,6.676,0,0,1,2.618,0,6.5,6.5,0,0,1,1.205.376c.194.078.389.181.57.272a6.692,6.692,0,0,1,2.618,2.618c.091.181.194.376.272.57a6.5,6.5,0,0,1,.376,1.205,6.676,6.676,0,0,1,0,2.618A6.5,6.5,0,0,1,36.1,22.644ZM30.129,13a7.129,7.129,0,1,0,7.129,7.129A7.125,7.125,0,0,0,30.129,13ZM36.1,22.644c-.078.194-.181.389-.272.57a6.692,6.692,0,0,1-2.618,2.618c-.181.091-.376.194-.57.272a6.5,6.5,0,0,1-1.205.376,6.676,6.676,0,0,1-2.618,0,6.5,6.5,0,0,1-1.205-.376c-.194-.078-.389-.181-.57-.272a6.692,6.692,0,0,1-2.618-2.618c-.091-.181-.194-.376-.272-.57a6.5,6.5,0,0,1-.376-1.205,6.676,6.676,0,0,1,0-2.618,6.5,6.5,0,0,1,.376-1.205c.078-.194.181-.389.272-.57a6.692,6.692,0,0,1,2.618-2.618c.181-.091.376-.194.57-.272a6.5,6.5,0,0,1,1.205-.376,6.676,6.676,0,0,1,2.618,0,6.5,6.5,0,0,1,1.205.376c.194.078.389.181.57.272a6.692,6.692,0,0,1,2.618,2.618c.091.181.194.376.272.57a6.5,6.5,0,0,1,.376,1.205,6.676,6.676,0,0,1,0,2.618A6.5,6.5,0,0,1,36.1,22.644ZM30.129,13a7.129,7.129,0,1,0,7.129,7.129A7.125,7.125,0,0,0,30.129,13ZM36.1,22.644c-.078.194-.181.389-.272.57a6.692,6.692,0,0,1-2.618,2.618c-.181.091-.376.194-.57.272a6.5,6.5,0,0,1-1.205.376,6.676,6.676,0,0,1-2.618,0,6.5,6.5,0,0,1-1.205-.376c-.194-.078-.389-.181-.57-.272a6.692,6.692,0,0,1-2.618-2.618c-.091-.181-.194-.376-.272-.57a6.5,6.5,0,0,1-.376-1.205,6.676,6.676,0,0,1,0-2.618,6.5,6.5,0,0,1,.376-1.205c.078-.194.181-.389.272-.57a6.692,6.692,0,0,1,2.618-2.618c.181-.091.376-.194.57-.272a6.5,6.5,0,0,1,1.205-.376,6.676,6.676,0,0,1,2.618,0,6.5,6.5,0,0,1,1.205.376c.194.078.389.181.57.272a6.692,6.692,0,0,1,2.618,2.618c.091.181.194.376.272.57a6.5,6.5,0,0,1,.376,1.205,6.676,6.676,0,0,1,0,2.618A6.5,6.5,0,0,1,36.1,22.644Z" transform="translate(0.842 -1.706)" opacity="0.07"/>
</svg>
