<svg xmlns="http://www.w3.org/2000/svg" width="50.649" height="40.797" viewBox="0 0 50.649 40.797">
  <path id="twitter" d="M56.646,13.824a21.071,21.071,0,0,1-5.975,1.635A10.381,10.381,0,0,0,55.245,9.75a20.861,20.861,0,0,1-6.6,2.5,10.364,10.364,0,0,0-17.7,9.4A29.613,29.613,0,0,1,9.529,10.879a10.172,10.172,0,0,0-1.407,5.185,10.276,10.276,0,0,0,4.621,8.576,10.58,10.58,0,0,1-4.711-1.286v.121a10.33,10.33,0,0,0,8.332,10.1,10.334,10.334,0,0,1-2.731.37,11.041,11.041,0,0,1-1.958-.19,10.41,10.41,0,0,0,9.7,7.155A21,21,0,0,1,8.474,45.322,20.554,20.554,0,0,1,6,45.176,29.7,29.7,0,0,0,21.928,49.8c19.111,0,29.567-15.694,29.567-29.309,0-.446-.014-.89-.035-1.329a20.443,20.443,0,0,0,5.187-5.335" transform="translate(-5.997 -9)" fill="#fa784a"/>
</svg>
